{"title":"Carrie Underwood - Heartbeat (2015 Country)","uid":13479150,"size":68028152,"categoryP":"video","categoryS":"music_videos","magnet":"?xt=urn:btih:1555484a623bb4316cd977fff843b552ad6abb43&amp;dn=Carrie+Underwood+-+Heartbeat+%282015+Country%29&amp;tr=udp%3A%2F%2Ftracker.leechers-paradise.org%3A6969&amp;tr=udp%3A%2F%2Fzer0day.ch%3A1337&amp;tr=udp%3A%2F%2Fopen.demonii.com%3A1337&amp;tr=udp%3A%2F%2Ftracker.coppersurfer.tk%3A6969&amp;tr=udp%3A%2F%2Fexodus.desync.com%3A6969","seeders":3,"leechers":0,"uploader":"MeRaDil","files":1,"time":1455042512,"description":"CARRIE UNDERWOOD - HEARTBEAT\r\n\r\n \nhttp://ultraimg.com/images/heartbeat.png\r\n \nhttp://ultraimg.com/images/heartbeat01.png\r\n\r\n\r\nGeneral\r\nCarrie Underwood - Heartbeat\r\nFormat                                   : MPEG-4\r\nFormat profile                           : Base Media\r\nCodec ID                                 : isom\r\nFile size                                : 64.9 MiB\r\nDuration                                 : 4mn 2s\r\nOverall bit rate                         : 2 241 Kbps\r\nMusicVid name                            : Heartbeat\r\nAlbum                                    : Storyteller\r\nPerformer                                : Carrie Underwood\r\nGenre                                    : Country\r\nContentType                              : Music Video\r\nRecorded date                            : 2015\r\nWriting application                      : Lavf56.32.100 / MeRaDil\r\nCover                                    : Yes\r\nRating                                   : ****\r\nArtist url                               : http://www.carrieunderwoodofficial.com/\r\nRelease time                             : USA . december 2 . 2015\r\n \nhttp://ultraimg.com/images/heartbeat-carrie.png\r\n\r\nVideo\r\nID                                       : 1\r\nFormat                                   : AVC\r\nFormat/Info                              : Advanced Video Codec\r\nFormat profile                           :   \r\nFormat settings, CABAC                   : Yes\r\nFormat settings, ReFrames                : 3 frames\r\nCodec ID                                 : avc1\r\nCodec ID/Info                            : Advanced Video Coding\r\nDuration                                 : 4mn 2s\r\nBit rate                                 : 1 968 Kbps\r\nWidth                                    : 1 920 pixels\r\nHeight                                   : 1 080 pixels\r\nDisplay aspect ratio                     : 16:9\r\nFrame rate mode                          : Variable\r\nFrame rate                               : 23.976 fps\r\nMinimum frame rate                       : 23.974 fps\r\nMaximum frame rate                       : 23.981 fps\r\nColor space                              : YUV\r\nChroma subsampling                       : 4:2:0\r\nBit depth                                : 8 bits\r\nScan type                                : Progressive\r\nBits/(Pixel*Frame)                       : 0.040\r\nStream size                              : 56.9 MiB (88%)\r\n\r\nAudio\r\nID                                       : 2\r\nFormat                                   : AAC\r\nFormat/Info                              : Advanced Audio Codec\r\nFormat profile                           : LC\r\nCodec ID                                 : 40\r\nDuration                                 : 4mn 2s\r\nBit rate mode                            : Constant\r\nBit rate                                 : 256 Kbps\r\nChannel(s)                               : 2 channels\r\nChannel positions                        : Front: L R\r\nSampling rate                            : 44.1 KHz\r\nCompression mode                         : Lossy\r\nStream size                              : 7.41 MiB (11%)","torrent":{"xt":"urn:btih:1555484a623bb4316cd977fff843b552ad6abb43","amp;dn":"Carrie+Underwood+-+Heartbeat+%282015+Country%29","amp;tr":["udp%3A%2F%2Ftracker.leechers-paradise.org%3A6969","udp%3A%2F%2Fzer0day.ch%3A1337","udp%3A%2F%2Fopen.demonii.com%3A1337","udp%3A%2F%2Ftracker.coppersurfer.tk%3A6969","udp%3A%2F%2Fexodus.desync.com%3A6969"],"infoHash":"1555484a623bb4316cd977fff843b552ad6abb43","infoHashBuffer":{"type":"Buffer","data":[21,85,72,74,98,59,180,49,108,217,119,255,248,67,181,82,173,106,187,67]},"announce":[],"urlList":[]}}